<svg width="20" height="20" viewBox="0 0 20 20" fill="none" xmlns="http://www.w3.org/2000/svg">
<path fill-rule="evenodd" clip-rule="evenodd" d="M10.0181 0.0749512C4.50621 0.0749512 0.0366211 4.61991 0.0366211 10.2268C0.0366211 14.7123 2.89662 18.5177 6.86257 19.8601C7.36141 19.9541 7.54456 19.6399 7.54456 19.3717C7.54456 19.1297 7.5353 18.3299 7.531 17.4816C4.75414 18.0958 4.16819 16.2838 4.16819 16.2838C3.71414 15.1104 3.05993 14.7984 3.05993 14.7984C2.15431 14.1683 3.12819 14.1812 3.12819 14.1812C4.13051 14.2527 4.65827 15.2274 4.65827 15.2274C5.54852 16.7794 6.99332 16.3307 7.5629 16.0713C7.65249 15.4153 7.91117 14.9672 8.19662 14.7138C5.9796 14.4571 3.64902 13.5866 3.64902 9.69661C3.64902 8.58824 4.03894 7.68261 4.67745 6.97166C4.57381 6.71579 4.23216 5.6834 4.77414 4.28503C4.77414 4.28503 5.61232 4.01218 7.51976 5.32565C8.31596 5.10072 9.16984 4.98791 10.0181 4.98405C10.8664 4.98791 11.7209 5.10072 12.5186 5.32565C14.4237 4.01218 15.2608 4.28503 15.2608 4.28503C15.8041 5.6834 15.4622 6.71579 15.3586 6.97166C15.9986 7.68261 16.3859 8.58824 16.3859 9.69661C16.3859 13.5958 14.0508 14.4544 11.8282 14.7057C12.1862 15.0208 12.5052 15.6386 12.5052 16.5858C12.5052 17.9439 12.4936 19.0372 12.4936 19.3717C12.4936 19.6419 12.6733 19.9585 13.1793 19.8588C17.1431 18.5149 19.9994 14.7108 19.9994 10.2268C19.9994 4.61991 15.5305 0.0749512 10.0181 0.0749512Z" fill="white"/>
<path fill-rule="evenodd" clip-rule="evenodd" d="M3.81712 14.6509C3.79513 14.7015 3.71712 14.7165 3.64604 14.6819C3.57365 14.6487 3.53298 14.58 3.55646 14.5294C3.57794 14.4774 3.65613 14.4631 3.72836 14.4976C3.80092 14.5309 3.84224 14.6003 3.81712 14.6509Z" fill="white"/>
<path fill-rule="evenodd" clip-rule="evenodd" d="M4.22141 15.1095C4.17381 15.1544 4.08075 15.1336 4.01761 15.0626C3.95232 14.9919 3.94009 14.8972 3.98836 14.8517C4.03745 14.8068 4.1277 14.8278 4.19315 14.8986C4.25844 14.9702 4.27117 15.0642 4.22141 15.1095Z" fill="white"/>
<path fill-rule="evenodd" clip-rule="evenodd" d="M4.61497 15.6942C4.55381 15.7375 4.45381 15.6969 4.39199 15.6067C4.33084 15.5164 4.33084 15.4081 4.39332 15.3647C4.4553 15.3214 4.55381 15.3604 4.61646 15.45C4.67745 15.5416 4.67745 15.65 4.61497 15.6942Z" fill="white"/>
<path fill-rule="evenodd" clip-rule="evenodd" d="M5.15414 16.2591C5.09943 16.3205 4.9829 16.304 4.89761 16.2203C4.81034 16.1384 4.78604 16.0222 4.84092 15.9609C4.89629 15.8993 5.01348 15.9167 5.09943 15.9997C5.18604 16.0814 5.21249 16.1984 5.15414 16.2591Z" fill="white"/>
<path fill-rule="evenodd" clip-rule="evenodd" d="M5.89794 16.5871C5.87381 16.6666 5.76158 16.7028 5.64852 16.669C5.53563 16.6342 5.46175 16.541 5.48456 16.4607C5.50803 16.3807 5.62075 16.343 5.73464 16.3791C5.84737 16.4138 5.92141 16.5062 5.89794 16.5871Z" fill="white"/>
<path fill-rule="evenodd" clip-rule="evenodd" d="M6.7148 16.648C6.71761 16.7317 6.62175 16.8011 6.50307 16.8025C6.38373 16.8053 6.2872 16.7376 6.28588 16.6552C6.28588 16.5706 6.3796 16.5019 6.49894 16.4998C6.61761 16.4975 6.7148 16.5647 6.7148 16.648Z" fill="white"/>
<path fill-rule="evenodd" clip-rule="evenodd" d="M7.47497 16.5163C7.48918 16.598 7.4067 16.6819 7.28885 16.7041C7.17299 16.7258 7.06571 16.6754 7.051 16.5943C7.03662 16.5106 7.12059 16.4267 7.23629 16.405C7.35431 16.3842 7.45993 16.4333 7.47497 16.5163Z" fill="white"/>
</svg>

